<svg class="ph-retro-logo" xmlns="http://www.w3.org/2000/svg" viewBox="0 0 75 76">
	<path d="M19.7 54.04l2.29-2.3c2.54-2.54 2.7-4.92.5-7.14-2.22-2.21-4.6-2.05-7.15.5l-2.3 2.3 6.65 6.64zm14.42 14.43l-6.93 6.93L.53 48.74 11.56 37.7c3-3 6.06-4.51 9.2-4.55 3.16-.03 6.14 1.37 8.97 4.2 2.83 2.82 4.23 5.81 4.2 8.96-.04 3.14-1.56 6.21-4.55 9.2l-4.1 4.1 8.84 8.85zm7.6-40.34l10-10-10.29-10.3L48.36.9l26.66 26.66-6.93 6.93-11-11-10 10.01 11 11-6.93 6.93L24.5 24.77l6.93-6.93 10.29 10.29z" fill-rule="evenodd"/>
</svg>