<svg viewBox="0 0 137 141" xmlns="http://www.w3.org/2000/svg" class="wellful-card-glyph"><defs><path id="a" d="M0 0h132v134.322H0z"/></defs><g fill="none" fill-rule="evenodd"><g transform="translate(2 4)"><mask id="b" fill="#fff"><use href="#a"/></mask><g mask="url(#b)"><path fill="#FFF" d="M28.722 5.294L4.654 47.387l65.518 40.502-6.016 1.983v6.283l12.075 13.551h9.84l4.684 13.357 7.91 6.902 3.282 4.567h26.827L117.767 68.09l-6.677-7.508-18.562-6.84 3.154-9.455z"/><path d="M128.5 130a2 2 0 0 1-2-1.67c-3.46-20.94-9.07-53.18-10.32-56.21l-.39-.94c-1.56-3.82-3-7.43-6.07-8.69-4-1.65-18.49-6.53-18.64-6.58a2 2 0 0 1 1.27-3.79c.6.2 14.79 5 18.9 6.68 4.57 1.89 6.52 6.66 8.24 10.87l.38.93c1.83 4.42 9.68 51.71 10.57 57.08a2 2 0 0 1-1.65 2.3l-.29.02z" fill="#000" fill-rule="nonzero"/><path d="M99.67 132a2 2 0 0 1-.9-.22 26.15 26.15 0 0 1-8.08-6.78c-3.25-4.28-4.52-8.59-5.42-13.74a34.64 34.64 0 0 1-.16-7.17c.14-3.14.28-6.38-.63-8.28-.74-1.53-3.75-7.06-7.23-13.45-1.63-3-3.36-6.17-5-9.23-4.87-9-7.34-13.74-8-15.36-1.56-3.78-.91-6.53-.09-8.16a10.19 10.19 0 0 1 5.41-4.67c2.84-1.17 7.2-1.33 11.87 4.56l24.13 30.38-3.13 2.49-24.15-30.43c-2.51-3.16-4.93-4.29-7.21-3.35a6.45 6.45 0 0 0-3.37 2.77 5.73 5.73 0 0 0 .21 4.84c.79 1.92 4.85 9.47 7.83 15 1.65 3.05 3.38 6.23 5 9.22 3.51 6.44 6.53 12 7.32 13.62 1.36 2.8 1.19 6.56 1 10.2a31.53 31.53 0 0 0 .1 6.3c.82 4.71 1.89 8.36 4.66 12a22.4 22.4 0 0 0 6.7 5.69 2 2 0 0 1-.91 3.78l.05-.01z" fill="#000" fill-rule="nonzero"/><path d="M86.15 102H86c-.61 0-10-2-11.83-5.27-.38-.69-1.14-1.78-1.94-2.92a39.42 39.42 0 0 1-4-6.51 2.002 2.002 0 1 1 3.7-1.53 37.88 37.88 0 0 0 3.57 5.77c.9 1.29 1.68 2.41 2.16 3.28.84 1.12 7.1 3.06 8.64 3.18a2 2 0 0 1 1.82 2.16 2 2 0 0 1-1.97 1.84z" fill="#000" fill-rule="nonzero"/><path d="M82.5 111.42c-2.51 0-5.32-.15-6.78-.76-3.12-1.3-11.77-11.85-13.06-13.77a7.15 7.15 0 0 1 1.13-9.4 7.47 7.47 0 0 1 7.84-1.63 2 2 0 1 1-1.53 3.69 3.49 3.49 0 0 0-3.56.83 3.15 3.15 0 0 0-.56 4.28c1.65 2.47 9.5 11.5 11.27 12.3 1.2.5 5.94.55 9.64.31a2.004 2.004 0 1 1 .26 4c-.65.04-2.51.15-4.65.15z" fill="#000" fill-rule="nonzero"/><path d="M69.01 88.67a7.63 7.63 0 0 1-3.91-1.08l-58.8-35a7.71 7.71 0 0 1-2.69-10.53l20.4-34.3a7.72 7.72 0 0 1 10.56-2.68l58.8 35a7.71 7.71 0 0 1 2.68 10.52l-6.34 10.68a2 2 0 1 1-3.44-2l6.35-10.68a3.71 3.71 0 0 0-1.29-5.07L32.5 8.52a3.72 3.72 0 0 0-5 1.28L7.05 44.11a3.71 3.71 0 0 0 1.29 5.07l58.8 35a3.72 3.72 0 0 0 5.07-1.29l3-5a2 2 0 1 1 3.44 2l-3 5a7.65 7.65 0 0 1-4.72 3.52 7.8 7.8 0 0 1-1.92.26z" fill="#000" fill-rule="nonzero"/><path fill="#000" d="M126.559 127.965h3.908v6.523h-3.908zm-28.831 2.581l3.45-1.835 3.063 5.76-3.45 1.835z"/></g></g><g stroke="#FF0068" stroke-width="3"><path d="M46.798 39.078c.058-1.507-1.57-7.645-9.396-4.876-1.455-8.346-7.413-6.765-8.716-6.006-2.39 1.413-3.616 4.991-2.948 7.472L28.9 48.354l12.686-3.163c2.501-.577 5.085-3.337 5.211-6.113z"/><path d="M56.728 45.044c.057-1.506-1.57-7.645-9.396-4.875-1.456-8.347-7.414-6.766-8.716-6.007-2.39 1.413-3.616 4.991-2.949 7.472l3.163 12.687 12.686-3.163c2.502-.577 5.085-3.338 5.212-6.113z"/></g></g></svg>