<svg class="hearts-animation" xmlns="http://www.w3.org/2000/svg" viewBox="0 0 500 229" xmlns:xlink="http://www.w3.org/1999/xlink">
	<defs>
		<g fill-rule="evenodd" id="perfect-heart">
			<path d="M186 177c45-47 67-83 67-107 0-39-31-70-67-70-39 0-70 31-70 70 0 24 23 60 70 107z"/>
			<path d="M70 177c45-47 67-83 67-107 0-39-31-70-67-70C31 0 0 31 0 70c0 24 23 60 70 107z"/>
			<path d="M128 229c29-24 48-41 58-52 49-52 67-88 67-107 0-39-89 2-125 2C89 72 0 31 0 70c0 18 26 60 70 107 12 12 31 30 58 52z"/>
		</g>
		<g fill-rule="evenodd" id="heart">
			<path d="M163.07 168.62c59.96-41.52 89.94-74.28 89.94-98.26C253.01 30.67 222.34 0 186.36 0 146.67 0 116 30.67 116 70.36c0 23.98 15.7 56.74 47.07 98.26z"/>
			<path d="M94.45 152.95c28.37-31.07 42.56-58.6 42.56-82.6C137.01 30.68 106.34 0 70.36 0 30.67 0 0 30.67 0 70.36c0 23.98 31.48 51.52 94.45 82.6z"/>
			<path d="M128.36 228.98c70.56-72.42 109.13-115.11 115.7-128.1 6.51-12.85 8.95-23.25 8.95-30.52 0-39.69-88.67 1.64-124.65 1.64C88.67 72 0 30.67 0 70.36c0 6.35 2.25 17.63 8.89 29.73 5.16 9.41 25.17 32.24 60.02 68.46a6458.3 6458.3 0 0 0 59.45 60.43z"/>
		</g>
	</defs>
	<filter id="cutoffOpacity">
		<feColorMatrix
			type="matrix"
			in="SourceGraphic"
			result="BlackHearts"
			values="0 0 0 0 0
			0 0 0 0 0
			0 0 0 0 0
			0 0 0 11 0"
		/>
		<feColorMatrix
			type="matrix"
			in="SourceGraphic"
			result="WhiteIntersection"
			values="1 0 0 0 0
			0 1 0 0 0
			0 0 1 0 0
			0 0 0 20 -2.3"
		/>
		<feMerge>
			<feMergeNode in="BlackHearts"/>
			<feMergeNode in="WhiteIntersection"/>
		</feMerge>
	</filter>
	<!-- 500-253 = 247 -->
	<g filter="url(#cutoffOpacity)">
		<use xlink:href="#heart" x="0" y="0" fill="#fff" opacity="0.1" class="left-heart heart" />
		<use xlink:href="#heart" x="247" y="0" fill="#fff" opacity="0.1" class="right-heart heart" />
	</g>
</svg>