<svg class="wellful-logotype" xmlns="http://www.w3.org/2000/svg" viewBox="0 0 553 141"><path d="M25 47.8l21.2 52.6 21.6-52.6h15.6l21.4 52.6L126 47.8h25l-40.6 93h-10.2L75.6 85 51 140.8H41l-41-93h25zM203.8 46c13.4 0 24 4.3 31.8 13a51 51 0 0 1 11.8 35.6v3.6h-64.6c1 8.1 4 14.4 9.1 18.8a31.2 31.2 0 0 0 21 6.6c5.8 0 11.3-1 16.6-3 5.3-2 10.8-5 16.5-9v17.8a65.6 65.6 0 0 1-38.9 11.4 45.5 45.5 0 0 1-49-47.6 47 47 0 0 1 12.7-34 43.6 43.6 0 0 1 33-13.2zm21 37.6a26.4 26.4 0 0 0-6-15.5c-3.4-3.8-8-5.7-14-5.7s-11 1.8-14.6 5.4c-3.7 3.6-6 8.9-7 15.8h41.6zm66.2-81V139h-24V2.6h24zm49.6 0V139h-24V2.6h24zM403.8.8a49.9 49.9 0 0 1 15.8 2.8v19.6c-3.3-1-6.9-1.4-10.8-1.4-5.8 0-10.1 1.5-13 4.5-2.8 3-4.2 8-4.2 15v6.5h15.6V66h-15.6v73h-24V66h-13V47.8h13V41c0-12.4 3.3-22.1 9.9-29.3A34 34 0 0 1 403.8.8zm39.4 47v56.4c0 6 1.4 10.5 4.4 13.6 3 3 6.9 4.6 11.8 4.6 4 0 7.9-1.2 11.6-3.7 3.7-2.5 6.7-6 9-10.5V47.8h24V139h-24v-12.4c-8.7 9.4-18 14.2-28.1 14.2a31 31 0 0 1-23.7-9.6 35 35 0 0 1-9-25V47.8h24zM552.8 2.6V139h-24V2.6h24z" fill="#FF0168" fill-rule="evenodd"/></svg>